<svg xmlns="http://www.w3.org/2000/svg" width="165" height="53" viewBox="0 0 165 53">
    <g fill="none" fill-rule="evenodd">
        <path fill="#009839" d="M0 0h28c6.075 0 11 4.925 11 11v42c-1.277-.667-2.447-1-3.512-1H0V0z"/>
        <path fill="#FFF" fill-rule="nonzero" d="M32.047 23.436v5h-9.574c-.05.855-.167 1.694-.346 2.51a23.544 23.544 0 0 1 11.359 8.914l.254.384-4.198 2.717A18.56 18.56 0 0 0 20.3 35.6a15.984 15.984 0 0 1-11.271 7.702l-.337.05-.679-4.954c5.098-.7 9.017-4.866 9.449-9.961H7.76v-5h24.287zM20.042 8.5a8.935 8.935 0 0 1 8.397 11.994l-.14.362-4.62-1.915a3.935 3.935 0 1 0-7.345-.18l.1.248-4.582 2.004A8.935 8.935 0 0 1 20.042 8.5z"/>
        <path fill="#1F1A17" fill-rule="nonzero" d="M58.642 23.18c1.476 0 2.628-.288 3.204-.576l-.324-1.242c-.63.306-1.602.504-2.556.504-2.952 0-4.662-1.908-4.662-4.878 0-3.186 1.89-5.004 4.734-5.004 1.008 0 1.854.216 2.448.504l.378-1.278c-.414-.216-1.368-.54-2.88-.54-3.762 0-6.336 2.574-6.336 6.372 0 3.978 2.574 6.138 5.994 6.138zm9.94.018c3.096 0 5.634-2.214 5.634-6.39 0-3.6-2.142-6.138-5.454-6.138-3.24 0-5.634 2.52-5.634 6.372 0 3.672 2.25 6.156 5.454 6.156zm.09-1.278c-2.466 0-3.87-2.322-3.87-4.914 0-2.664 1.296-5.058 3.888-5.058 2.61 0 3.87 2.52 3.87 4.932 0 2.754-1.404 5.04-3.888 5.04zm17.644 3.996l.108-4.158-1.062-.036V10.868h-1.584v10.818h-5.562V10.868H76.65V23h8.316l.108 2.916h1.242zM90.46 23l3.798-6.03c.828-1.35 1.656-2.754 2.25-4.086l.054.018c-.115 1.403-.14 2.73-.144 4.452V23h1.476V10.868h-1.566l-3.924 6.246c-.882 1.44-1.638 2.754-2.25 4.014l-.036-.018c.108-1.62.144-3.204.144-5.13v-5.112h-1.476V23h1.674zm11.272 0l1.26-3.816h4.302L108.59 23h1.674l-4.14-12.132h-1.89L100.112 23h1.62zm5.238-5.04h-3.654l1.188-3.51c.234-.738.432-1.476.612-2.196h.036c.18.702.36 1.422.63 2.214l1.188 3.492zm4.792 5.184c.702 0 1.404-.288 1.854-.576 1.71-1.152 1.818-4.086 1.818-6.714v-3.672h4.014V23h1.584V10.868h-7.128v5.112c0 1.944-.09 4.302-1.062 5.256-.288.27-.792.558-1.278.648l.198 1.26zm14.836-.036c1.674 0 3.366-.378 4.356-1.422.576-.63.936-1.458.936-2.592 0-2.682-2.196-3.78-4.68-3.78-.414 0-1.134.036-1.494.09v-4.536h-1.566v12.096c.522.072 1.35.144 2.448.144zm.414-1.224c-.54 0-.936-.018-1.296-.09v-5.148c.396-.054.882-.09 1.278-.09 1.728 0 3.258.72 3.258 2.628 0 1.854-1.494 2.7-3.24 2.7zm8.86 1.116v-5.688h5.868V23h1.584V10.868h-1.584v5.076h-5.868v-5.076h-1.566V23h1.566zm11.272 0l1.26-3.816h4.302L154.002 23h1.674l-4.14-12.132h-1.89L145.524 23h1.62zm5.238-5.04h-3.654l1.188-3.51c.234-.738.432-1.476.612-2.196h.036c.18.702.36 1.422.63 2.214l1.188 3.492zm6.052 5.04c.18-.324.27-.576.396-.882.432-1.152.774-2.934 1.602-3.78.432-.432.99-.594 1.746-.594h1.152V23h1.566V11.03c-.792-.162-1.872-.252-2.898-.252-1.53 0-2.718.324-3.474.936-.684.558-1.116 1.404-1.116 2.466 0 1.656 1.188 2.736 2.682 2.988v.054c-.36.108-.72.324-1.008.612-.99.99-1.314 2.682-1.836 4.068A7.748 7.748 0 0 1 156.76 23h1.674zm3.564-6.444c-1.71 0-3.006-.846-3.006-2.304 0-1.674 1.314-2.268 2.862-2.268.702 0 1.206.09 1.476.144v4.41c-.306.018-.81.018-1.332.018zM54.916 42v-5.562h.504c2.052 0 2.826 1.098 3.384 2.7.324.954.666 2.034 1.098 2.862h1.692c-.54-1.08-.882-2.196-1.332-3.438-.63-1.638-1.404-2.862-3.402-3.132l4.59-5.562h-1.89l-4.158 5.382h-.486v-5.382h-1.548V42h1.548zm9.4 0l1.26-3.816h4.302L71.174 42h1.674l-4.14-12.132h-1.89L62.696 42h1.62zm5.238-5.04H65.9l1.188-3.51c.234-.738.432-1.476.612-2.196h.036c.18.702.36 1.422.63 2.214l1.188 3.492zM76.596 42v-4.86c.36.09.792.108 1.26.108 1.53 0 2.88-.45 3.708-1.332.612-.63.936-1.494.936-2.592 0-1.08-.396-1.962-1.062-2.538-.72-.648-1.854-1.008-3.402-1.008-1.26 0-2.25.108-3.006.234V42h1.566zm1.296-6.012c-.522 0-.954-.036-1.296-.126v-4.716c.27-.072.792-.126 1.476-.126 1.728 0 2.862.774 2.862 2.376 0 1.674-1.152 2.592-3.042 2.592zM88.894 42V31.2h3.708v-1.332H83.62V31.2h3.69V42h1.584zm4.702 0l1.26-3.816h4.302L100.454 42h1.674l-4.14-12.132h-1.89L91.976 42h1.62zm5.238-5.04H95.18l1.188-3.51c.234-.738.432-1.476.612-2.196h.036c.18.702.36 1.422.63 2.214l1.188 3.492z"/>
    </g>
</svg>
