<svg xmlns="http://www.w3.org/2000/svg" width="40" height="40" viewBox="0 0 40 40">
    <g fill="none" fill-rule="evenodd" stroke="#009839"  stroke-linejoin="round" stroke-width="2">
        <path d="M12.47 8h15.06a4 4 0 0 1 3.96 3.434L33 22H7l1.51-10.566A4 4 0 0 1 12.47 8z"/>
        <path d="M12.47 8h15.06a4 4 0 0 1 3.96 3.434L33 22l-.835 9.181A2 2 0 0 1 30.174 33H9.826a2 2 0 0 1-1.991-1.819L7 22l1.51-10.566A4 4 0 0 1 12.47 8zM11 33h3v3h-3zM26 33h3v3h-3z"/>
        <path d="M12 26h2a1 1 0 0 1 1 1v1a1 1 0 0 1-1 1h-2a1 1 0 0 1-1-1v-1a1 1 0 0 1 1-1zM26 26h2a1 1 0 0 1 1 1v1a1 1 0 0 1-1 1h-2a1 1 0 0 1-1-1v-1a1 1 0 0 1 1-1z"/>
        <path stroke-linecap="round" d="M16 8l-1-4M24 8l1-4M20 22V8M12.5 4H27M12.5 36H27"/>
    </g>
</svg>
